<svg id="colchete-icone" xmlns="http://www.w3.org/2000/svg" width="17" height="21" viewBox="0 0 17 21">
  <path id="Notification" d="M8.045,19.976a3.493,3.493,0,0,1-2.33-1.307.7.7,0,0,1,.109-.98.683.683,0,0,1,.968.111,2.115,2.115,0,0,0,1.414.79,2.14,2.14,0,0,0,1.577-.445,1.911,1.911,0,0,0,.356-.347.685.685,0,0,1,.969-.106.7.7,0,0,1,.105.981,3.29,3.29,0,0,1-.6.583,3.492,3.492,0,0,1-2.571.721ZM4.013,15.744a4.811,4.811,0,0,1-3.086-1.61A4.445,4.445,0,0,1,0,11.322v-.251A4.493,4.493,0,0,1,.67,8.911l.067-.092A4.16,4.16,0,0,0,1.665,6.9l-.015.065,0-.565.012-.629c.009-.277.023-.527.042-.764A6.426,6.426,0,0,1,3.935.719,6.9,6.9,0,0,1,8.465-1h.072A6.9,6.9,0,0,1,13.066.719,6.464,6.464,0,0,1,15.3,5.007c.017.21.025.4.028.684V6.4c0,.115,0,.219,0,.325l.009.207.045.2a4.219,4.219,0,0,0,.726,1.512l.15.187.062.084A4.44,4.44,0,0,1,17,11.108v.426a4.432,4.432,0,0,1-.966,2.638,4.7,4.7,0,0,1-3.047,1.571A39.675,39.675,0,0,1,8.494,16,39.42,39.42,0,0,1,4.013,15.744ZM1.787,9.778h0l-.077.136a2.94,2.94,0,0,0-.313.992l-.017.2v.23a2.91,2.91,0,0,0,.575,1.813,3.423,3.423,0,0,0,2.2,1.126,38.264,38.264,0,0,0,4.342.248,38.357,38.357,0,0,0,4.357-.249,3.358,3.358,0,0,0,2.157-1.089,2.917,2.917,0,0,0,.613-1.874v-.172a2.837,2.837,0,0,0-.435-1.4l.015.027L15.065,9.6a5.727,5.727,0,0,1-1.013-2.11L13.987,7.2l-.013-.1c-.011-.155-.016-.282-.019-.423l0-.956c0-.241-.008-.4-.022-.578A5.4,5.4,0,0,0,8.536.474H8.465A5.38,5.38,0,0,0,3.08,5.135c-.011.129-.02.27-.029.446l-.015.493-.007.971-.014.15a5.688,5.688,0,0,1-1.22,2.572h0Z" transform="translate(0 1)" fill="#fff"/>
</svg>
