<svg xmlns="http://www.w3.org/2000/svg" width="12.048" height="12" viewBox="0 0 12.048 12">
  <path id="fleche-diagonal" d="M10984.443,1388.249a.664.664,0,0,1-.043-.877l.063-.068,8.494-8.494-5.99.146a.632.632,0,0,1-.655-.652.707.707,0,0,1,.58-.675l.1-.009,7.566-.183a.638.638,0,0,1,.511.183.62.62,0,0,1,.163.283.439.439,0,0,1,.018.088V1378a.53.53,0,0,1,.006.078v.015l-.183,7.61a.71.71,0,0,1-.687.681.631.631,0,0,1-.645-.557l-.008-.1.147-5.993-8.494,8.493a.7.7,0,0,1-.491.206A.638.638,0,0,1,10984.443,1388.249Z" transform="translate(-10983.709 -1376.934)" fill="#020f11" stroke="rgba(0,0,0,0)" stroke-miterlimit="10" stroke-width="1"/>
</svg>
