<svg xmlns="http://www.w3.org/2000/svg" width="37" height="37" viewBox="0 0 37 37">
  <g id="Group_29129" data-name="Group 29129" transform="translate(0.238)">
    <circle id="Ellipse_641" data-name="Ellipse 641" cx="18.5" cy="18.5" r="18.5" transform="translate(-0.238)" fill="none"/>
    <g id="fleche-bas" transform="translate(10.762 14)">
      <path id="Union_117" data-name="Union 117" d="M6.742,8.668.326,1.932A1.152,1.152,0,0,1,.08.705,1.06,1.06,0,0,1,1.072,0a1.063,1.063,0,0,1,.766.334L7.5,6.287,13.162.342A1.039,1.039,0,0,1,13.9,0h.025a1.065,1.065,0,0,1,.988.693,1.17,1.17,0,0,1-.238,1.238L8.254,8.668a1.026,1.026,0,0,1-1.512,0Z" fill="#fff"/>
    </g>
  </g>
</svg>
