<svg id="utilisateur" xmlns="http://www.w3.org/2000/svg" width="20" height="20" viewBox="0 0 20 20">
  <rect id="Rectangle_17091" data-name="Rectangle 17091" width="20" height="20" fill="#fff" opacity="0"/>
  <g id="Profile" transform="translate(1 1)">
    <path id="Profile-2" data-name="Profile" d="M7.51,17.966c-.137,0-.232,0-.32,0l-.162-.005a2.986,2.986,0,0,1-.454-.044,20.556,20.556,0,0,1-2.624-.32l-.287-.051c-1.742-.326-2.838-.915-3.347-1.8A2.419,2.419,0,0,1,0,14.554a2.374,2.374,0,0,1,.323-1.2c.526-.888,1.771-1.526,3.6-1.845A22.058,22.058,0,0,1,6.558,11.2c.808-.06,1.63-.091,2.441-.091s1.633.031,2.441.091l.518.036c.71.06,1.419.153,2.107.276,1.943.337,3.092.928,3.617,1.859a2.37,2.37,0,0,1,0,2.372c-.522.927-1.7,1.531-3.6,1.847l-.526.092a20.726,20.726,0,0,1-2.115.232c-.8.058-1.622.087-2.427.087C8.507,18,8,17.988,7.51,17.966Zm-.825-5.4a20.432,20.432,0,0,0-2.426.289,3.817,3.817,0,0,0-2.48,1.107,1.176,1.176,0,0,0-.157.59,1.208,1.208,0,0,0,.156.595c.287.5,1.154.88,2.506,1.1l.4.07a20.824,20.824,0,0,0,2.109.237,2.641,2.641,0,0,0,.322.031l.443.005c.483.023.974.033,1.457.033.763,0,1.537-.028,2.3-.083a18.88,18.88,0,0,0,2.432-.3L14,16.2c1.194-.229,1.961-.591,2.219-1.05a1.191,1.191,0,0,0,0-1.193c-.275-.489-1.134-.871-2.485-1.106a20.639,20.639,0,0,0-2.42-.287l-.014,0c-.76-.056-1.531-.085-2.292-.085S7.456,12.508,6.685,12.566ZM4,4.055a5.123,5.123,0,0,1,10.245,0A5.123,5.123,0,0,1,4,4.055Zm1.39,0a3.733,3.733,0,0,0,7.465,0,3.733,3.733,0,0,0-7.465,0Z" transform="translate(0)" fill="#fff"/>
  </g>
</svg>
